<svg width="438" height="75" viewBox="0 0 438 75" fill="none" xmlns="http://www.w3.org/2000/svg">
<path d="M130.364 19.4545V74H120.403L96.6726 39.6694H96.2731V74H84.7408V19.4545H94.8615L118.406 53.7585H118.885V19.4545H130.364ZM158.323 74.799C154.114 74.799 150.492 73.9467 147.456 72.2422C144.438 70.5199 142.112 68.0874 140.478 64.9446C138.845 61.7841 138.028 58.0465 138.028 53.7319C138.028 49.5238 138.845 45.8306 140.478 42.6523C142.112 39.4741 144.411 36.9972 147.376 35.2216C150.359 33.446 153.857 32.5582 157.87 32.5582C160.569 32.5582 163.081 32.9933 165.407 33.8633C167.751 34.7156 169.793 36.0028 171.533 37.7251C173.291 39.4474 174.658 41.6136 175.634 44.2237C176.611 46.8161 177.099 49.8523 177.099 53.3324V56.4485H142.555V49.4173H166.419C166.419 47.7837 166.064 46.3366 165.354 45.076C164.644 43.8153 163.658 42.8299 162.397 42.1197C161.155 41.3917 159.707 41.0277 158.056 41.0277C156.334 41.0277 154.807 41.4272 153.475 42.2262C152.161 43.0075 151.131 44.0639 150.386 45.3956C149.64 46.7095 149.258 48.1744 149.241 49.7901V56.4751C149.241 58.4993 149.613 60.2482 150.359 61.7219C151.123 63.1957 152.197 64.332 153.582 65.131C154.967 65.93 156.609 66.3295 158.509 66.3295C159.77 66.3295 160.924 66.152 161.971 65.7969C163.019 65.4418 163.916 64.9091 164.661 64.1989C165.407 63.4886 165.975 62.6186 166.366 61.5888L176.859 62.2812C176.327 64.8026 175.235 67.0043 173.584 68.8864C171.95 70.7507 169.837 72.2067 167.245 73.2543C164.67 74.2841 161.696 74.799 158.323 74.799ZM193.252 33.0909L200.763 47.3931L208.46 33.0909H220.099L208.247 53.5455L220.419 74H208.833L200.763 59.8576L192.826 74H181.108L193.252 53.5455L181.534 33.0909H193.252ZM238.283 74.7724C235.673 74.7724 233.347 74.3196 231.305 73.4141C229.263 72.4908 227.647 71.1325 226.458 69.3391C225.286 67.5281 224.7 65.2731 224.7 62.5742C224.7 60.3015 225.117 58.3928 225.952 56.848C226.786 55.3033 227.923 54.0604 229.361 53.1193C230.799 52.1783 232.433 51.468 234.261 50.9886C236.108 50.5092 238.043 50.1719 240.067 49.9766C242.447 49.728 244.364 49.4972 245.82 49.2841C247.276 49.0533 248.333 48.7159 248.99 48.272C249.647 47.8281 249.975 47.1712 249.975 46.3011V46.1413C249.975 44.4545 249.442 43.1495 248.377 42.2262C247.33 41.3029 245.838 40.8413 243.903 40.8413C241.861 40.8413 240.236 41.294 239.029 42.1996C237.821 43.0874 237.022 44.206 236.632 45.5554L226.138 44.7031C226.671 42.2173 227.718 40.0689 229.281 38.2578C230.843 36.429 232.859 35.0263 235.327 34.0497C237.813 33.0554 240.689 32.5582 243.956 32.5582C246.229 32.5582 248.404 32.8246 250.481 33.3572C252.576 33.8899 254.432 34.7156 256.048 35.8342C257.681 36.9528 258.968 38.391 259.909 40.1488C260.85 41.8888 261.321 43.9751 261.321 46.4077V74H250.561V68.3271H250.241C249.585 69.6055 248.706 70.733 247.605 71.7095C246.504 72.6683 245.181 73.4229 243.636 73.9734C242.092 74.506 240.307 74.7724 238.283 74.7724ZM241.532 66.9421C243.201 66.9421 244.675 66.6136 245.953 65.9567C247.232 65.282 248.235 64.3764 248.963 63.2401C249.691 62.1037 250.055 60.8164 250.055 59.3782V55.0369C249.7 55.2678 249.212 55.4808 248.59 55.6761C247.987 55.8537 247.303 56.0224 246.539 56.1822C245.776 56.3242 245.012 56.4574 244.249 56.5817C243.485 56.6882 242.793 56.7859 242.172 56.8746C240.84 57.07 239.677 57.3807 238.683 57.8068C237.688 58.233 236.916 58.81 236.365 59.538C235.815 60.2482 235.54 61.136 235.54 62.2013C235.54 63.7461 236.099 64.9268 237.218 65.7436C238.354 66.5426 239.792 66.9421 241.532 66.9421ZM270.336 74V19.4545H291.856C295.993 19.4545 299.518 20.2447 302.43 21.8249C305.342 23.3874 307.561 25.5625 309.088 28.3501C310.633 31.12 311.405 34.3161 311.405 37.9382C311.405 41.5604 310.624 44.7564 309.062 47.5263C307.499 50.2962 305.235 52.4535 302.27 53.9982C299.323 55.543 295.754 56.3153 291.563 56.3153H277.847V47.0735H289.699C291.919 47.0735 293.747 46.6918 295.186 45.9283C296.642 45.147 297.725 44.0728 298.435 42.7056C299.163 41.3207 299.527 39.7315 299.527 37.9382C299.527 36.1271 299.163 34.5469 298.435 33.1974C297.725 31.8303 296.642 30.7738 295.186 30.0281C293.73 29.2646 291.883 28.8828 289.646 28.8828H281.869V74H270.336ZM318.683 74V33.0909H329.683V40.2287H330.109C330.854 37.6896 332.106 35.772 333.864 34.4759C335.622 33.1619 337.646 32.505 339.937 32.505C340.505 32.505 341.117 32.5405 341.774 32.6115C342.431 32.6825 343.008 32.7802 343.505 32.9045V42.9719C342.973 42.8121 342.236 42.6701 341.295 42.5458C340.354 42.4215 339.493 42.3594 338.711 42.3594C337.042 42.3594 335.551 42.7234 334.237 43.4513C332.941 44.1616 331.911 45.1559 331.147 46.4343C330.402 47.7127 330.029 49.1864 330.029 50.8555V74H318.683ZM365.951 74.799C361.814 74.799 358.236 73.9201 355.218 72.1623C352.217 70.3867 349.9 67.9187 348.266 64.7582C346.633 61.5799 345.816 57.8956 345.816 53.7053C345.816 49.4794 346.633 45.7862 348.266 42.6257C349.9 39.4474 352.217 36.9794 355.218 35.2216C358.236 33.446 361.814 32.5582 365.951 32.5582C370.088 32.5582 373.657 33.446 376.657 35.2216C379.676 36.9794 382.002 39.4474 383.635 42.6257C385.269 45.7862 386.086 49.4794 386.086 53.7053C386.086 57.8956 385.269 61.5799 383.635 64.7582C382.002 67.9187 379.676 70.3867 376.657 72.1623C373.657 73.9201 370.088 74.799 365.951 74.799ZM366.004 66.0099C367.886 66.0099 369.458 65.4773 370.718 64.4119C371.979 63.3288 372.929 61.8551 373.568 59.9908C374.225 58.1264 374.553 56.0046 374.553 53.6254C374.553 51.2461 374.225 49.1243 373.568 47.2599C372.929 45.3956 371.979 43.9219 370.718 42.8388C369.458 41.7557 367.886 41.2141 366.004 41.2141C364.104 41.2141 362.506 41.7557 361.21 42.8388C359.932 43.9219 358.964 45.3956 358.307 47.2599C357.668 49.1243 357.348 51.2461 357.348 53.6254C357.348 56.0046 357.668 58.1264 358.307 59.9908C358.964 61.8551 359.932 63.3288 361.21 64.4119C362.506 65.4773 364.104 66.0099 366.004 66.0099Z" fill="#4F9CF9"/>
<path d="M0 3.74785C0 2.14828 1.78461 1.19594 3.1134 2.08642L16.1134 10.7983C16.6675 11.1696 17 11.7927 17 12.4597V67.6061V71C17 72.1046 16.1046 73 15 73H2C0.89543 73 0 72.1046 0 71V3.74785Z" fill="#191BA9"/>
<path d="M20 16.7151C20 15.1221 21.7715 14.1685 23.1012 15.0455L36.1012 23.6203C36.6623 23.9904 37 24.6176 37 25.2898V71C37 72.1046 36.1046 73 35 73H22C20.8954 73 20 72.1046 20 71V16.7151Z" fill="#4749BA"/>
<path d="M40 30.5986C40 29.0299 41.7238 28.0718 43.0561 28.9002L56.0561 36.9833C56.6431 37.3483 57 37.9905 57 38.6817V71C57 72.1046 56.1046 73 55 73H42C40.8954 73 40 72.1046 40 71V30.5986Z" fill="#7DCEF5"/>
<path d="M61 5C61 3.89543 61.8954 3 63 3L75 3C76.1046 3 77 3.89543 77 5V71C77 72.1046 76.1046 73 75 73H63C61.8954 73 61 72.1046 61 71V5Z" fill="#5CC2F2"/>
</svg>
