<svg width="192" height="34" viewBox="0 0 192 34" fill="none" xmlns="http://www.w3.org/2000/svg">
<g clip-path="url(#clip0_5_34634)">
<path d="M20 6.19543C20 4.51248 21.9519 3.582 23.2593 4.64168L24.8432 5.92543C25.3117 6.30518 25.5839 6.87608 25.5839 7.47918V28.8572V29C25.5839 30.1046 24.6885 31 23.5839 31H22C20.8954 31 20 30.1046 20 29V6.19543Z" fill="#191BA9"/>
<path d="M26.8054 11.1801C26.8054 9.50141 28.7487 8.56959 30.0576 9.6206L31.6415 10.8924C32.1143 11.272 32.3893 11.8456 32.3893 12.4519V29.0002C32.3893 30.1048 31.4939 31.0002 30.3893 31.0002H28.8054C27.7009 31.0002 26.8054 30.1048 26.8054 29.0002V11.1801Z" fill="#4749BA"/>
<path d="M33.6108 16.7282C33.6108 15.0789 35.495 14.1385 36.8131 15.1299L38.397 16.3214C38.8993 16.6992 39.1947 17.2911 39.1947 17.9197V29C39.1947 30.1045 38.2993 31 37.1947 31H35.6108C34.5063 31 33.6108 30.1045 33.6108 29V16.7282Z" fill="#7DCEF5"/>
<path d="M40.5906 5.23047C40.5906 4.1259 41.486 3.23047 42.5906 3.23047H44C45.1045 3.23047 46 4.1259 46 5.23047V29.0002C46 30.1047 45.1045 31.0002 44 31.0002H42.5906C41.486 31.0002 40.5906 30.1047 40.5906 29.0002V5.23047Z" fill="#5CC2F2"/>
</g>
<path d="M80.5526 6.63636V27H76.8338L67.9744 14.1832H67.8253V27H63.5199V6.63636H67.2983L76.0881 19.4432H76.267V6.63636H80.5526ZM90.9904 27.2983C89.4194 27.2983 88.0671 26.9801 86.9336 26.3438C85.8067 25.7008 84.9383 24.7926 84.3285 23.6193C83.7186 22.4394 83.4137 21.044 83.4137 19.4332C83.4137 17.8622 83.7186 16.4834 84.3285 15.2969C84.9383 14.1103 85.7968 13.1856 86.9038 12.5227C88.0174 11.8598 89.3233 11.5284 90.8214 11.5284C91.829 11.5284 92.7669 11.6908 93.6353 12.0156C94.5103 12.3338 95.2726 12.8144 95.9222 13.4574C96.5785 14.1004 97.0889 14.9091 97.4535 15.8835C97.8181 16.8513 98.0004 17.9848 98.0004 19.2841V20.4474H85.104V17.8224H94.0131C94.0131 17.2126 93.8806 16.6723 93.6154 16.2017C93.3503 15.7311 92.9824 15.3632 92.5117 15.098C92.0477 14.8262 91.5075 14.6903 90.891 14.6903C90.248 14.6903 89.6779 14.8395 89.1808 15.1378C88.6902 15.4295 88.3058 15.8239 88.0273 16.321C87.7489 16.8116 87.6064 17.3584 87.5998 17.9616V20.4574C87.5998 21.2131 87.739 21.866 88.0174 22.4162C88.3024 22.9664 88.7035 23.3906 89.2205 23.6889C89.7376 23.9872 90.3507 24.1364 91.06 24.1364C91.5307 24.1364 91.9615 24.0701 92.3526 23.9375C92.7437 23.8049 93.0785 23.6061 93.3569 23.3409C93.6353 23.0758 93.8474 22.7509 93.9933 22.3665L97.9109 22.625C97.712 23.5663 97.3043 24.3883 96.6879 25.0909C96.078 25.7869 95.2892 26.3305 94.3214 26.7216C93.3602 27.1061 92.2499 27.2983 90.9904 27.2983ZM104.031 11.7273L106.835 17.0668L109.708 11.7273H114.054L109.629 19.3636L114.173 27H109.848L106.835 21.7202L103.872 27H99.4968L104.031 19.3636L99.6559 11.7273H104.031ZM120.842 27.2884C119.868 27.2884 119 27.1193 118.237 26.7812C117.475 26.4366 116.872 25.9295 116.428 25.2599C115.99 24.5838 115.771 23.742 115.771 22.7344C115.771 21.8859 115.927 21.1733 116.239 20.5966C116.55 20.0199 116.974 19.5559 117.511 19.2045C118.048 18.8532 118.658 18.5881 119.341 18.4091C120.03 18.2301 120.753 18.1042 121.509 18.0312C122.397 17.9384 123.113 17.8523 123.656 17.7727C124.2 17.6866 124.594 17.5606 124.839 17.3949C125.085 17.2292 125.207 16.9839 125.207 16.6591V16.5994C125.207 15.9697 125.009 15.4825 124.611 15.1378C124.22 14.7931 123.663 14.6207 122.94 14.6207C122.178 14.6207 121.571 14.7898 121.121 15.1278C120.67 15.4593 120.372 15.8769 120.226 16.3807L116.308 16.0625C116.507 15.1345 116.898 14.3324 117.482 13.6562C118.065 12.9735 118.817 12.4498 119.739 12.0852C120.667 11.714 121.741 11.5284 122.96 11.5284C123.809 11.5284 124.621 11.6278 125.396 11.8267C126.179 12.0256 126.871 12.3338 127.474 12.7514C128.084 13.169 128.565 13.706 128.916 14.3622C129.268 15.0118 129.443 15.7907 129.443 16.6989V27H125.426V24.8821H125.307C125.062 25.3594 124.733 25.7803 124.322 26.1449C123.911 26.5028 123.418 26.7846 122.841 26.9901C122.264 27.1889 121.598 27.2884 120.842 27.2884ZM122.055 24.3651C122.679 24.3651 123.229 24.2424 123.706 23.9972C124.183 23.7453 124.558 23.4072 124.83 22.983C125.101 22.5587 125.237 22.0781 125.237 21.5412V19.9205C125.105 20.0066 124.922 20.0862 124.69 20.1591C124.465 20.2254 124.21 20.2884 123.925 20.348C123.64 20.401 123.355 20.4508 123.07 20.4972C122.785 20.5369 122.526 20.5734 122.294 20.6065C121.797 20.6795 121.363 20.7955 120.991 20.9545C120.62 21.1136 120.332 21.3291 120.126 21.6009C119.921 21.866 119.818 22.1974 119.818 22.5952C119.818 23.1719 120.027 23.6127 120.445 23.9176C120.869 24.2159 121.406 24.3651 122.055 24.3651ZM132.809 27V6.63636H140.843C142.388 6.63636 143.703 6.93134 144.79 7.52131C145.878 8.10464 146.706 8.91667 147.276 9.95739C147.853 10.9915 148.141 12.1847 148.141 13.5369C148.141 14.8892 147.85 16.0824 147.266 17.1165C146.683 18.1506 145.838 18.956 144.731 19.5327C143.63 20.1094 142.298 20.3977 140.734 20.3977H135.613V16.9474H140.038C140.866 16.9474 141.549 16.8049 142.086 16.5199C142.629 16.2282 143.034 15.8272 143.299 15.3168C143.571 14.7997 143.707 14.2064 143.707 13.5369C143.707 12.8608 143.571 12.2708 143.299 11.767C143.034 11.2566 142.629 10.8622 142.086 10.5838C141.542 10.2988 140.853 10.1562 140.018 10.1562H137.114V27H132.809ZM150.858 27V11.7273H154.965V14.392H155.124C155.402 13.4441 155.87 12.7282 156.526 12.2443C157.182 11.7538 157.938 11.5085 158.793 11.5085C159.005 11.5085 159.234 11.5218 159.479 11.5483C159.724 11.5748 159.94 11.6113 160.125 11.6577V15.4162C159.926 15.3565 159.651 15.3035 159.3 15.2571C158.949 15.2107 158.627 15.1875 158.336 15.1875C157.712 15.1875 157.156 15.3234 156.665 15.5952C156.181 15.8603 155.797 16.2315 155.512 16.7088C155.233 17.1861 155.094 17.7363 155.094 18.3594V27H150.858ZM168.505 27.2983C166.96 27.2983 165.625 26.9702 164.498 26.3139C163.378 25.651 162.513 24.7296 161.903 23.5497C161.293 22.3632 160.988 20.9877 160.988 19.4233C160.988 17.8456 161.293 16.4669 161.903 15.2869C162.513 14.1004 163.378 13.179 164.498 12.5227C165.625 11.8598 166.96 11.5284 168.505 11.5284C170.049 11.5284 171.382 11.8598 172.502 12.5227C173.629 13.179 174.497 14.1004 175.107 15.2869C175.717 16.4669 176.022 17.8456 176.022 19.4233C176.022 20.9877 175.717 22.3632 175.107 23.5497C174.497 24.7296 173.629 25.651 172.502 26.3139C171.382 26.9702 170.049 27.2983 168.505 27.2983ZM168.525 24.017C169.228 24.017 169.814 23.8182 170.285 23.4205C170.755 23.0161 171.11 22.4659 171.349 21.7699C171.594 21.0739 171.717 20.2817 171.717 19.3935C171.717 18.5052 171.594 17.7131 171.349 17.017C171.11 16.321 170.755 15.7708 170.285 15.3665C169.814 14.9621 169.228 14.7599 168.525 14.7599C167.816 14.7599 167.219 14.9621 166.735 15.3665C166.258 15.7708 165.897 16.321 165.651 17.017C165.413 17.7131 165.293 18.5052 165.293 19.3935C165.293 20.2817 165.413 21.0739 165.651 21.7699C165.897 22.4659 166.258 23.0161 166.735 23.4205C167.219 23.8182 167.816 24.017 168.525 24.017Z" fill="#4F9CF9"/>
<defs>
<clipPath id="clip0_5_34634">
<rect width="37" height="29" fill="white" transform="translate(14.75 2.5)"/>
</clipPath>
</defs>
</svg>
