<svg width="44" height="44" viewBox="0 0 44 44" fill="none" xmlns="http://www.w3.org/2000/svg">
<path d="M9 11.6954C9 10.0125 10.9519 9.082 12.2593 10.1417L13.8432 11.4254C14.3117 11.8052 14.5839 12.3761 14.5839 12.9792V34.3572V34.5C14.5839 35.6046 13.6885 36.5 12.5839 36.5H11C9.89543 36.5 9 35.6046 9 34.5V11.6954Z" fill="#191BA9"/>
<path d="M15.8054 16.6801C15.8054 15.0014 17.7487 14.0696 19.0576 15.1206L20.6415 16.3924C21.1143 16.772 21.3893 17.3456 21.3893 17.9519V34.5002C21.3893 35.6048 20.4939 36.5002 19.3893 36.5002H17.8054C16.7009 36.5002 15.8054 35.6048 15.8054 34.5002V16.6801Z" fill="#4749BA"/>
<path d="M22.6108 22.2282C22.6108 20.5789 24.495 19.6385 25.8131 20.6299L27.397 21.8214C27.8993 22.1992 28.1947 22.7911 28.1947 23.4197V34.5C28.1947 35.6045 27.2993 36.5 26.1947 36.5H24.6108C23.5063 36.5 22.6108 35.6045 22.6108 34.5V22.2282Z" fill="#7DCEF5"/>
<path d="M29.5906 10.7305C29.5906 9.6259 30.486 8.73047 31.5906 8.73047H33C34.1045 8.73047 35 9.6259 35 10.7305V34.5002C35 35.6047 34.1045 36.5002 33 36.5002H31.5906C30.486 36.5002 29.5906 35.6047 29.5906 34.5002L29.5906 10.7305Z" fill="#5CC2F2"/>
</svg>
