<svg width="77" height="73" viewBox="0 0 77 73" fill="none" xmlns="http://www.w3.org/2000/svg">
<path d="M0 3.74785C0 2.14828 1.78461 1.19594 3.1134 2.08642L16.1134 10.7983C16.6675 11.1696 17 11.7927 17 12.4597V67.6061V71C17 72.1046 16.1046 73 15 73H2C0.89543 73 0 72.1046 0 71V3.74785Z" fill="#191BA9"/>
<path d="M20 16.7151C20 15.1221 21.7715 14.1685 23.1012 15.0455L36.1012 23.6203C36.6623 23.9904 37 24.6176 37 25.2898V71C37 72.1046 36.1046 73 35 73H22C20.8954 73 20 72.1046 20 71V16.7151Z" fill="#4749BA"/>
<path d="M40 30.5986C40 29.0299 41.7238 28.0718 43.0561 28.9002L56.0561 36.9833C56.6431 37.3483 57 37.9905 57 38.6817V71C57 72.1046 56.1046 73 55 73H42C40.8954 73 40 72.1046 40 71V30.5986Z" fill="#7DCEF5"/>
<path d="M61 5C61 3.89543 61.8954 3 63 3L75 3C76.1046 3 77 3.89543 77 5V71C77 72.1046 76.1046 73 75 73H63C61.8954 73 61 72.1046 61 71V5Z" fill="#5CC2F2"/>
</svg>
